<svg xmlns="http://www.w3.org/2000/svg" width="190.337" height="71.313" viewBox="0 0 190.337 71.313"><defs><style>.cls-1,.cls-2,.cls-4{fill:#fff}.cls-1,.cls-4{stroke:#fff}.cls-1{stroke-width:.1px}.cls-3{fill:#da282d}.cls-4{stroke-width:.3px}</style></defs><g id="dadangky" transform="translate(0.05 0.05)"><ellipse id="Ellipse_7" data-name="Ellipse 7" class="cls-1" cx="35.607" cy="35.607" rx="35.607" ry="35.607" transform="translate(0 0)"/><path id="Rectangle_22" data-name="Rectangle 22" class="cls-2" d="M0 0h117.787v41.97H0z" transform="translate(65.392 15.001)"/><path id="Path_149" data-name="Path 149" class="cls-3" d="M83.641-466.5a27.992 27.992.0 0 0-17.032 8.042 27.753 27.753.0 0 0-7.785 15.177 29.954 29.954.0 0 0 0 8.8A27.752 27.752.0 0 0 66.61-419.3a27.753 27.753.0 0 0 15.177 7.785 29.953 29.953.0 0 0 8.8.0 27.753 27.753.0 0 0 15.177-7.785 27.667 27.667.0 0 0 7.785-15.177 34.219 34.219.0 0 0 .217-7.419l-.122-.921-14.08 14.026c-9 8.976-14.243 14.107-14.527 14.229a3.256 3.256.0 0 1-2.18-.014c-.609-.244-18.656-18.2-19.022-18.914a2.95 2.95.0 0 1-.108-2.1 20.67 20.67.0 0 1 3.845-3.845 2.529 2.529.0 0 1 2.166.0c.366.176 2.775 2.491 7.311 7.04 3.723 3.737 6.824 6.783 6.9 6.783s4.468-4.332 9.748-9.626c9.843-9.843 16.328-16.219 16.761-16.463.23-.122.2-.217-.433-1.286a27.789 27.789.0 0 0-23.165-13.579C85.713-466.593 84.264-466.566 83.641-466.5zm4.657 6.431a2.52 2.52.0 0 1 .528 2.9 1.7 1.7.0 0 1-3.087-.095 2.669 2.669.0 0 1 .149-2.329A1.789 1.789.0 0 1 88.3-460.068zm2.6.014c.095.027.162.311.176.758.0.393.054 1.015.095 1.381l.095.65.609-1.246.609-1.232.474.081c.745.135.812-.108-.758 2.586l-.731 1.246-.487-.108a3.185 3.185.0 0 1-.528-.162 35.692 35.692.0 0 1-.5-4.1A2.161 2.161.0 0 1 90.9-460.054zm-6.9.271c.433.3.636.731.42.88a.784.784.0 0 1-.934-.081.685.685.0 0 0-.921-.041 2.347 2.347.0 0 0 .014 1.719.777.777.0 0 0 .961.5c.284-.068.366-.162.325-.393s-.122-.284-.406-.257c-.325.041-.379.0-.379-.3.0-.42.054-.447.921-.569.785-.095.826-.054.88 1.164.027.6.014.623-.582.907a1.829 1.829.0 0 1-2.64-.6c-.542-1.137-.325-2.518.46-2.951A2.329 2.329.0 0 1 83.993-459.783zm12.077 1.2c.325.176.393.271.325.582-.027.2-.149.826-.257 1.381l-.19 1.015.366-.406c.2-.23.623-.7.934-1.07.542-.65.569-.663.975-.487a1.474 1.474.0 0 1 .5.3 6.923 6.923.0 0 1-1.367 1.6l-1.462 1.476-.5-.257-.5-.257.244-1.868c.135-1.029.244-1.95.257-2.044C95.393-458.836 95.6-458.822 96.07-458.578zm-17.627.406c.149.325.122.352-.65.745s-.8.42-.65.745l.149.325.663-.338a2.627 2.627.0 0 1 .718-.3c.014.027.095.176.19.338.149.284.108.325-.528.65s-.663.352-.514.677c.19.42.19.42 1.07.0l.731-.325.176.338c.108.19.162.366.135.393-.122.108-2.288 1.151-2.383 1.151a25.132 25.132.0 0 1-1.76-3.588 25.085 25.085.0 0 1 2.356-1.151C78.226-458.511 78.361-458.362 78.443-458.172zm-2.884 2.667c.447.609.961 1.313 1.151 1.57l.338.46-.393.311-.393.311-.894-.406c-1.638-.745-1.6-.745-1.042-.014.8 1.042.853 1.2.474 1.516a2.272 2.272.0 0 1-.406.284 9.479 9.479.0 0 1-.934-1.191c-.474-.65-1-1.367-1.178-1.611l-.325-.42.42-.3.406-.284 1.232.542 1.218.542-.338-.474c-.19-.257-.514-.677-.7-.934l-.352-.474.311-.271a1.358 1.358.0 0 1 .46-.257A5.025 5.025.0 0 1 75.559-455.505zm24.64-.812c.393.311.393.2.122 2.275l-.081.609.69-.921.7-.907.393.3c.23.162.352.352.3.447-.23.393-2.261 3.046-2.329 3.046a1.77 1.77.0 0 1-.433-.311l-.352-.3.162-1.259c.095-.677.149-1.246.135-1.246s-.325.393-.677.88c-.663.907-.812.948-1.273.406-.19-.23-.271-.108 1.286-2.207a10.173 10.173.0 0 1 .894-1.11A1.665 1.665.0 0 1 100.2-456.318zm-27.619 3.9c1.124 1.124 1.327 1.394 1.2 1.584-.393.636-.528.569-1.95-.839a12.636 12.636.0 0 1-1.354-1.476 1.007 1.007.0 0 1 .6-.623A10.83 10.83.0 0 1 72.58-452.418zm-2.5 2.166 1.151.934.555-.636c.555-.623.569-.636.853-.379l.271.244-.772 1a5.832 5.832.0 0 1-.866 1 33.933 33.933.0 0 1-3.087-2.383 1.41 1.41.0 0 1 .6-.731A9.781 9.781.0 0 1 70.076-450.252zm-.894 1.841c.934.487 1.706.921 1.706.948a2.733 2.733.0 0 1-.2.46c-.19.379-.271.406-.988.42a8.972 8.972.0 0 0-1.3.095l-.514.095.961.46a7.247 7.247.0 0 1 .961.514 2.371 2.371.0 0 1-.5.853 24.991 24.991.0 0 1-3.425-1.909 1.293 1.293.0 0 1 .217-.46c.19-.284.325-.338.921-.352a7.917 7.917.0 0 0 1.2-.095l.514-.095-.853-.46c-.474-.257-.88-.487-.907-.5-.081-.068.284-.866.393-.866C67.422-449.3 68.248-448.9 69.182-448.411zm-1.53 3.859a1.643 1.643.0 0 1 1.164 1.76c-.19 1.435-1.53 1.99-3.019 1.259a1.668 1.668.0 0 1-1.042-1.5C64.755-444.539 66.082-445.229 67.652-444.552z" transform="translate(-50.512 474.595)"/><path id="Path_150" data-name="Path 150" class="cls-3" d="M266.306-413.594a2.373 2.373.0 0 0 .176 1.855c.366.379.88.122 1.056-.528.257-.988-.027-1.733-.69-1.733C266.564-414 266.442-413.905 266.306-413.594z" transform="translate(-230.09 429.136)"/><path id="Path_151" data-name="Path 151" class="cls-3" d="M111.169-297.856c-.487.6.311 1.313 1.449 1.313.487.0.6-.054.731-.339.135-.311.108-.393-.2-.7C112.713-298.032 111.467-298.194 111.169-297.856z" transform="translate(-95.925 328.873)"/><path id="Path_152" data-name="Path 152" class="cls-3" d="M472.636-421.634a36.671 36.671.0 0 1 6.187 14.351 36.021 36.021.0 0 1-1.868 19.915 38.56 38.56.0 0 1-4.359 7.907l-.6.785h60.356c55.116.0 60.423-.014 61.1-.217a6.355 6.355.0 0 0 2.911-1.733 6.355 6.355.0 0 0 1.733-2.911c.19-.663.217-2.423.217-16.8s-.027-16.138-.217-16.8a6.355 6.355.0 0 0-1.733-2.911 6.355 6.355.0 0 0-2.911-1.733c-.677-.2-5.971-.217-60.911-.217H472.379zm59.069 1.652a1.1 1.1.0 0 0 .257.569c.2.257.379.311 1 .311.826.0 1.259-.257 1.34-.785.041-.257.135-.284 1.029-.325l.975-.041v.379a2.752 2.752.0 0 1-1.868 2.342 8.015 8.015.0 0 1-2.9.0 2.576 2.576.0 0 1-1.8-2.207l-.095-.5h1.029C531.6-420.24 531.706-420.213 531.706-419.983zm-26.969.217c1.232.447 1.841.447 2.247.0l.325-.338.758.433a2.241 2.241.0 0 1 .758.609c0 .339-1.151 1.367-1.692 1.516a2.844 2.844.0 0 1-2.166-.19c-1.218-.433-1.746-.433-2.18.0l-.338.338-.731-.42a4.517 4.517.0 0 1-.812-.528c-.095-.149.677-1.178 1.042-1.367A2.994 2.994.0 0 1 504.737-419.766zm83.818-.027c-.2.162-.88.772-1.516 1.354l-1.151 1.056-1.1-.041-1.1-.041.961-1.327.961-1.313h1.638l1.652.014zm-79.716 11.467c.88 4.576 1.6 8.462 1.6 8.624.014.311-.014.311-1.611.311a14.811 14.811.0 0 1-1.625-.041c0-.027-.122-.7-.271-1.516s-.271-1.489-.271-1.516-.88-.041-1.936-.041h-1.95l-.257 1.516-.257 1.53-1.543.041-1.53.041.081-.379c.149-.69 3.2-16.829 3.2-16.9a20.865 20.865.0 0 1 2.4-.041l2.4.041zm50.418-8.11a3.137 3.137.0 0 1 1.557.921c.8.8 1.056 1.516 1.164 3.344l.095 1.408h-3.29v-1.327a3.264 3.264.0 0 0-.2-1.611 2.1 2.1.0 0 0-2.383-.271c-.5.379-.528.636-.528 6.119v5.361l.311.311a1.975 1.975.0 0 0 1.841.352c.88-.23.961-.46.961-2.735v-2h-1.354V-409h4.63l-.068 3.276c-.068 3.845-.162 4.251-1.191 5.28-.921.921-2.058 1.246-4.021 1.164a4.343 4.343.0 0 1-3.2-1.056c-1.178-1.042-1.3-1.774-1.3-7.649.0-5.835.135-6.62 1.286-7.622.961-.853 1.692-1.07 3.534-1.1A6.407 6.407.0 0 1 559.257-416.436zm-63.429.271a3.465 3.465.0 0 1 1.882 1.882l.352.745v11.1l-.352.745a3.465 3.465.0 0 1-1.882 1.882c-.731.352-.8.352-4.224.393l-3.493.041v-7.46h-1.083V-409h1.083v-7.6l3.493.041C495.029-416.517 495.1-416.517 495.828-416.165zm28.3.0a3.466 3.466.0 0 1 1.882 1.882l.352.745v11.1l-.352.745a3.466 3.466.0 0 1-1.882 1.882c-.731.352-.8.352-4.224.393l-3.493.041v-7.46h-1.083V-409h1.083v-7.6l3.493.041C523.325-416.517 523.393-416.517 524.124-416.165zm12.889 7.974c.866 4.576 1.584 8.435 1.584 8.556.014.217-.149.244-1.611.244-1.57.0-1.625-.014-1.692-.311-.027-.162-.162-.867-.284-1.557l-.217-1.246h-3.859l-.244 1.557-.257 1.557H528.89c-1.53.0-1.543.0-1.476-.311.041-.162.718-3.71 1.5-7.88s1.5-7.907 1.584-8.3l.149-.7 2.383.027 2.4.041zm8.773-3.493 1.557 4.887.041-4.887.027-4.9h2.979v17.208l-1.719-.041-1.719-.041-1.909-5.943-1.9-5.957-.041 5.984-.027 5.984H540.1v-17.194h4.129zm26.157-1.354.041 3.561 1.95-3.507c1.083-1.922 2.031-3.52 2.112-3.547a12.316 12.316.0 0 1 1.665-.027l1.5.041-1.286 2.234c-.718 1.232-1.706 2.938-2.22 3.8l-.907 1.557 2.207 4.725c1.219 2.6 2.22 4.752 2.22 4.766a15.854 15.854.0 0 1-1.679.041h-1.679l-1.53-3.385L572.8-406.16l-.433.7-.447.7v5.361h-3.385v-17.194h3.385zm11.67-1.625c.325 1.07.866 2.775 1.178 3.8a5.439 5.439.0 0 0 .677 1.692c.041-.095.6-1.8 1.2-3.8l1.124-3.615h1.543a4.922 4.922.0 0 1 1.53.122c0 .068-.88 2.626-1.963 5.7l-1.963 5.578v5.795h-3.385v-5.849l-1.922-5.429c-1.043-2.992-1.936-5.551-1.977-5.686-.054-.2.095-.23 1.638-.23H583zm6.309 19.266v.474H488.382v-.948h101.54zm-89.789 3.033a8.662 8.662.0 0 1 .7.88c0 .041-.19.081-.433.081a1.317 1.317.0 0 1-.934-.487l-.487-.474-.406.487c-.366.433-.474.487-.934.447l-.528-.041.745-.839C498.874-393.447 499.172-393.447 500.133-392.364zm19.09.0a8.665 8.665.0 0 1 .7.88c0 .041-.19.081-.433.081a1.317 1.317.0 0 1-.934-.487l-.487-.474-.406.487c-.366.433-.474.487-.934.447l-.528-.041.745-.839C517.964-393.447 518.262-393.447 519.223-392.364zm55.048.8a2.264 2.264.0 0 1-.081.745 2.4 2.4.0 0 1-1.1 1.516c-.217.122-.217.19-.014.853a6.93 6.93.0 0 1 .163 2.3 4.182 4.182.0 0 1-.406 2.261 2.92 2.92.0 0 1-1.6 1.543 3.3 3.3.0 0 1-3.547-.528 4.062 4.062.0 0 1-1.3-3.222c-.108-2.153.487-3.669 1.774-4.414a3.417 3.417.0 0 1 3.628.149l.542.352.366-.271a1.438 1.438.0 0 0 .487-.839c.108-.514.149-.555.569-.555A.923.923.0 0 1 574.272-391.565zm-7.636.636a2.1 2.1.0 0 1-1.584 2.126l-.582.135v2.193c0 2.478-.135 2.938-.988 3.7a3.574 3.574.0 0 1-3.683.393c-1.462-.677-1.557-1-1.557-5.158v-3.317h1.219v3.276c0 3.534.041 3.71.718 4.224a2.651 2.651.0 0 0 2.329.027c.677-.447.745-.866.745-4.346v-3.182h1.219v.609c0 .46.054.609.2.609.366.0.839-.609.948-1.191.081-.542.122-.569.555-.569S566.636-391.376 566.636-390.929zm-66.123.311c1.3.663 1.841 1.76 1.922 3.831.095 2.356-.474 3.669-1.882 4.373a3.336 3.336.0 0 1-4.6-1.638c-.3-.582-.325-.826-.325-2.41a4.833 4.833.0 0 1 .311-2.437 3.355 3.355.0 0 1 2.193-1.977A4.186 4.186.0 0 1 500.513-390.617zm10.831-.176a2.88 2.88.0 0 1 1.868 1.8c.325.921.3.975-.366.975-.569.0-.569-.014-.812-.69a1.653 1.653.0 0 0-1.8-1.2 1.968 1.968.0 0 0-1.868 1.151 8.9 8.9.0 0 0-.23 3.967 2.613 2.613.0 0 0 1.449 1.652 1.988 1.988.0 0 0 2.559-1.395c.095-.487.108-.5.7-.5h.609l-.081.5a3.058 3.058.0 0 1-3.033 2.478 3.162 3.162.0 0 1-3.155-1.923 8.842 8.842.0 0 1-.19-4.495A3.373 3.373.0 0 1 511.344-390.793zm8.259.176c1.3.663 1.841 1.76 1.923 3.831.095 2.356-.474 3.669-1.882 4.373a3.336 3.336.0 0 1-4.6-1.638c-.3-.582-.325-.826-.325-2.41a4.833 4.833.0 0 1 .311-2.437 3.355 3.355.0 0 1 2.193-1.977A4.186 4.186.0 0 1 519.6-390.617zm16.937.0a2.877 2.877.0 0 1 1.34 1.5c.3.731.257.826-.393.826-.542.0-.6-.041-.745-.447a1.6 1.6.0 0 0-1.692-1.151 1.637 1.637.0 0 0-1.3.271c-.731.5-.988 1.151-1.07 2.667-.081 1.733.162 2.627.907 3.3a2.3 2.3.0 0 0 2.247.5c.948-.217 1.015-.3 1.015-1.367v-.934h-1.9v-1.083h3.114v1.665c0 1.584-.014 1.692-.325 1.977a4.4 4.4.0 0 1-4.211.5 3.25 3.25.0 0 1-1.719-1.774 4.833 4.833.0 0 1-.311-2.437c0-1.652.027-1.8.379-2.545a3.046 3.046.0 0 1 1.882-1.665A4.32 4.32.0 0 1 536.539-390.617zm51.989.0a2.877 2.877.0 0 1 1.34 1.5c.3.731.257.826-.393.826-.542.0-.6-.041-.745-.447a1.6 1.6.0 0 0-1.692-1.151 1.637 1.637.0 0 0-1.3.271c-.731.5-.988 1.151-1.07 2.667-.081 1.733.162 2.627.907 3.3a2.3 2.3.0 0 0 2.247.5c.948-.217 1.015-.3 1.015-1.367v-.934h-1.9v-1.083h3.114v1.665c0 1.584-.014 1.692-.325 1.977a4.4 4.4.0 0 1-4.211.5 3.25 3.25.0 0 1-1.719-1.774 4.832 4.832.0 0 1-.311-2.437c0-1.652.027-1.8.379-2.545a3.046 3.046.0 0 1 1.882-1.665A4.321 4.321.0 0 1 588.528-390.617zm-95.611.108a2.372 2.372.0 0 1 1.151 1.922 2.264 2.264.0 0 1-.907 1.665l-.311.176.447.257a1.885 1.885.0 0 1 .961 1.882 2.109 2.109.0 0 1-.379 1.327c-.6.907-1.137 1.083-3.493 1.083h-2v-8.692l2 .054C492.064-390.807 492.457-390.753 492.917-390.509zm33.522 2.857 2.085 3.222.041-3.222.027-3.209h1.219v8.678l-.623-.041-.623-.041-2.058-3.168-2.044-3.155-.041 3.2-.027 3.2h-1.219v-8.665h1.191zm22.19-2.667v.542h-2.708v7.582H544.7v-7.582H542v-1.083h6.634zm2.437 1.286v1.828h4.2v-3.655h1.218v8.665h-1.218v-3.926h-4.2v3.926h-1.219v-8.665h1.219zm27.226 1.381 2.085 3.222.041-3.222.027-3.209h1.218v8.678l-.623-.041-.623-.041-2.058-3.168-2.044-3.155-.041 3.2-.027 3.2H575.03v-8.665h1.191z" transform="translate(-408.03 436.053)"/><path id="Path_153" data-name="Path 153" class="cls-3" d="M703.7-353.386c-.393 2.22-.7 4.075-.7 4.129a4.469 4.469.0 0 0 1.422.108c1.191.0 1.422-.027 1.422-.217s-1.313-7.69-1.394-7.947C704.435-357.38 704.1-355.62 703.7-353.386z" transform="translate(-607.755 380.125)"/><path id="Path_154" data-name="Path 154" class="cls-3" d="M616-361.428v2.572h1.9v2.166H616v5.009h.921a6.3 6.3.0 0 0 1.408-.149c.921-.244.921-.271.921-6.011s0-5.767-.921-6.011a6.3 6.3.0 0 0-1.408-.149H616z" transform="translate(-532.534 385.906)"/><path id="Path_155" data-name="Path 155" class="cls-3" d="M825-361.428v2.572h1.9v2.166H825v5.009h.921a6.3 6.3.0 0 0 1.408-.149c.921-.244.921-.271.921-6.011s0-5.767-.921-6.011a6.3 6.3.0 0 0-1.408-.149H825z" transform="translate(-713.238 385.906)"/><path id="Path_156" data-name="Path 156" class="cls-3" d="M911.7-352.9c-.393 2.247-.718 4.143-.7 4.2a4.767 4.767.0 0 0 1.462.108h1.462l-.718-4.035c-.393-2.207-.731-4.1-.745-4.2S912.094-355.165 911.7-352.9z" transform="translate(-787.592 379.71)"/><path id="Path_157" data-name="Path 157" class="cls-3" d="M1179.5-184.78c-1.029.447-1.5 1.665-1.395 3.628.108 2.044.826 2.951 2.315 2.951a1.437 1.437.0 0 0 1.232-.406c.745-.663.934-1.327.88-3.209-.054-1.5-.081-1.652-.433-2.193A2.064 2.064.0 0 0 1179.5-184.78z" transform="translate(-1018.522 231.109)"/><path id="Path_158" data-name="Path 158" class="cls-3" d="M656.367-184.813c-1.015.623-1.327 1.489-1.246 3.466.054 1.557.311 2.234 1.07 2.748a1.637 1.637.0 0 0 1.3.271 1.571 1.571.0 0 0 1.259-.447c.636-.609.853-1.476.785-3.155-.041-1.286-.081-1.516-.406-2.071A2.012 2.012.0 0 0 656.367-184.813z" transform="translate(-566.348 231.21)"/><path id="Path_159" data-name="Path 159" class="cls-3" d="M797.367-184.813c-1.015.623-1.327 1.489-1.246 3.466.054 1.557.311 2.234 1.07 2.748a1.637 1.637.0 0 0 1.3.271 1.571 1.571.0 0 0 1.259-.447c.636-.609.853-1.476.785-3.155-.041-1.286-.081-1.516-.406-2.071A2.012 2.012.0 0 0 797.367-184.813z" transform="translate(-688.259 231.21)"/><path id="Path_160" data-name="Path 160" class="cls-3" d="M602-182.714v1.286h1.124c1.381.0 1.922-.271 2.071-1.015a1.291 1.291.0 0 0-.569-1.408 5.654 5.654.0 0 0-1.476-.149H602z" transform="translate(-520.429 230.275)"/><path id="Path_161" data-name="Path 161" class="cls-3" d="M602-155.511v1.489h1.124c1.394.0 1.99-.257 2.22-.961a1.748 1.748.0 0 0-.393-1.774c-.244-.19-.582-.244-1.625-.244H602z" transform="translate(-520.429 206.931)"/><ellipse id="Ellipse_8" data-name="Ellipse 8" class="cls-4" cx=".609" cy=".609" rx=".609" ry=".609" transform="translate(90.439 54.737)"/><ellipse id="Ellipse_9" data-name="Ellipse 9" class="cls-4" cx=".406" cy=".406" rx=".406" ry=".406" transform="translate(29.921 18.386)"/><ellipse id="Ellipse_10" data-name="Ellipse 10" class="cls-4" cx=".406" cy=".406" rx=".406" ry=".406" transform="translate(42.376 18.521)"/></g></svg>