<svg width="284" height="60" viewBox="0 0 284 60" fill="none" xmlns="http://www.w3.org/2000/svg">
<path d="M277.576 0C276.008 0.00493935 274.506 0.629956 273.397 1.7386C272.289 2.84724 271.664 4.34947 271.659 5.91732V20.4318C268.734 18.0502 265.2 16.6526 261.387 16.6526C251.336 16.6526 243.193 26.3319 243.193 38.2645C243.193 50.1971 251.336 59.8763 261.387 59.8763C265.347 59.8763 268.999 58.3591 271.986 55.809C272.423 57.1443 273.322 58.2799 274.521 59.0115C275.721 59.7431 277.142 60.0226 278.529 59.7998C279.916 59.5769 281.178 58.8664 282.088 57.7959C282.999 56.7255 283.497 55.3654 283.493 53.9604V5.91732C283.488 4.34947 282.863 2.84724 281.755 1.7386C280.646 0.629956 279.144 0.00493935 277.576 0ZM263.62 48.7505C259.18 48.7505 255.582 43.9685 255.582 38.07C255.582 32.1714 259.18 27.3952 263.62 27.3952C268.061 27.3952 271.657 32.1786 271.657 38.0757C271.657 43.9729 268.06 48.7505 263.62 48.7505Z" fill="#1A76E3"/>
<path d="M108.146 59.9967C102.612 59.9967 98.2495 58.3297 95.1792 55.0404C92.0627 51.705 90.4822 47.0844 90.4822 41.3068V23.2263C90.4822 21.3533 91.1104 19.6892 92.2961 18.4242C92.8494 17.8382 93.5165 17.3714 94.2565 17.0523C94.9965 16.7333 95.7939 16.5687 96.5998 16.5687C97.4057 16.5687 98.203 16.7333 98.9431 17.0523C99.6831 17.3714 100.35 17.8382 100.903 18.4242C102.091 19.6921 102.717 21.3519 102.717 23.2263V41.3097C102.717 43.5458 103.14 45.1551 103.971 46.096C104.802 47.0368 106.221 47.5368 108.149 47.5368C110.119 47.5368 111.545 47.0512 112.391 46.096C113.237 45.1407 113.644 43.5443 113.644 41.3082V23.2263C113.644 21.3533 114.271 19.6906 115.458 18.4242C116.012 17.8384 116.679 17.3718 117.419 17.0528C118.159 16.7339 118.956 16.5694 119.762 16.5694C120.568 16.5694 121.365 16.7339 122.105 17.0528C122.845 17.3718 123.512 17.8384 124.066 18.4242C125.253 19.6935 125.88 21.3533 125.88 23.2278V41.3097C125.88 47.0887 124.286 51.7122 121.144 55.0505C118.047 58.334 113.676 59.9967 108.146 59.9967Z" fill="#22C55E"/>
<path d="M21.6746 22.2332C23.6225 19.4871 25.3817 16.9023 27.2519 14.3997C29.4851 11.4042 31.5742 8.24603 34.1677 5.58489C36.8346 2.84739 40.4942 3.55337 42.311 6.78795C43.5054 8.91024 42.9824 11.0657 41.7606 12.9646C39.8141 15.9903 37.7091 18.9093 35.6531 21.863C33.3479 25.1854 30.9331 28.4445 28.7373 31.8376C28.0263 32.9461 27.6216 34.2232 27.5645 35.539C27.4363 40.8598 27.5299 46.1864 27.4925 51.5116C27.4795 52.6298 27.354 53.7438 27.1179 54.8369C26.3096 58.6449 24.33 60.1433 20.6603 59.8278C17.832 59.5829 15.8192 57.2863 15.7443 53.837C15.6261 48.362 15.5786 42.887 15.7054 37.412C15.7644 34.8863 15.1564 32.8144 13.6335 30.7699C9.96382 25.8424 6.45837 20.7881 2.97165 15.7295C1.94609 14.2575 1.0801 12.6806 0.388317 11.0253C-0.540994 8.76472 0.252883 6.4825 2.18066 5.06909C4.21506 3.57499 6.75518 3.47557 8.62965 5.08061C9.9264 6.21174 11.0869 7.49019 12.0875 8.89006C14.8567 12.711 17.5078 16.6228 20.2179 20.4884C20.5925 21.0215 21.055 21.497 21.6746 22.2332Z" fill="#22C55E"/>
<path d="M196.7 52.2509L188.997 9.1596C188.997 9.1596 187.209 2.12564 179.171 3.68458C179.171 3.68458 175.04 3.9079 173.032 8.81957L164.549 41.1654L156.062 8.81957C154.055 3.9079 149.923 3.68458 149.923 3.68458C141.885 2.12132 140.1 9.1596 140.1 9.1596L132.396 52.2509C131.837 58.6148 136.749 59.6191 136.749 59.6191C143.232 60.9028 144.509 54.5965 144.509 54.5965L149.253 20.1615C149.253 20.1615 156.79 51.5333 158.074 55.9984C159.435 59.135 162.562 59.7977 164.102 59.9317V59.962C164.102 59.962 164.27 59.9706 164.549 59.962C164.827 59.9534 164.995 59.962 164.995 59.962V59.9317C166.535 59.7977 169.66 59.1335 171.022 55.9984C172.307 51.5319 179.841 20.1615 179.841 20.1615L184.596 54.6037C184.596 54.6037 185.877 60.91 192.353 59.6263C192.346 59.6191 197.26 58.6148 196.7 52.2509Z" fill="#1A76E3"/>
<path d="M211.698 33.851H227.476C227.476 33.851 227.179 27.1528 219.586 26.8559C219.586 26.8559 212.737 26.4107 211.698 33.851ZM216.02 48.0672C223.24 51.2672 231.427 45.6856 231.427 45.6856C238.497 43.6008 238.497 49.4821 238.497 49.4821C238.72 54.2453 233.36 56.9223 233.36 56.9223C220.707 63.5499 209.246 57.222 209.246 57.222C198.382 50.7471 199.349 37.3506 199.349 37.3506C199.493 32.6609 202.297 17.4764 219.376 16.733C231.357 16.2128 239.022 25.8877 239.547 35.4157C239.906 41.9885 236.047 41.9641 236.047 41.9641H212.069C211.848 45.6856 216.014 48.0672 216.014 48.0672" fill="#1A76E3"/>
<path d="M84.0109 38.2844C84.0109 50.2775 74.8748 60 63.605 60C52.3351 60 43.2004 50.2775 43.2004 38.2844C43.2004 26.2912 52.3351 16.5688 63.605 16.5688C74.8748 16.5688 84.0109 26.2912 84.0109 38.2844ZM63.605 27.7868C58.8503 27.7868 54.9933 32.5284 54.9933 38.378C54.9933 44.2276 58.8489 48.9678 63.605 48.9678C68.361 48.9678 72.2166 44.2276 72.2166 38.378C72.2166 32.5284 68.361 27.7868 63.605 27.7868Z" fill="#22C55E"/>
</svg>
